<?xml version="1.0" encoding="UTF-8"?>
<svg version="1.1" xmlns="http://www.w3.org/2000/svg" width="500" height="306">
<path d="M0 0 C3.20894988 1.36158001 4.75167711 2.68492543 6.6875 5.5625 C18.15110459 21.33208542 35.28645047 31.01636463 54.37646484 34.4543457 C59.91104327 35.23398657 65.43387755 35.12818588 71.01171875 35.07421875 C72.07177124 35.06886108 73.13182373 35.06350342 74.22399902 35.0579834 C76.81608443 35.04410636 79.40799846 35.02465189 82 35 C82.14948029 70.01288437 81.75870517 104.99527078 81 140 C76.70673582 138.56891194 75.50919291 135.34215642 73.3125 131.625 C68.74455001 124.09498709 63.83901201 116.99463297 58.46875 110.0078125 C56.83721195 107.77746527 55.39115919 105.47514188 53.9375 103.125 C50.57690822 97.78122638 46.95242625 92.66949278 43.20092773 87.59619141 C40 83.21205584 40 83.21205584 40 81 C39.34 81 38.68 81 38 81 C37.66226563 80.37351562 37.32453125 79.74703125 36.9765625 79.1015625 C36.53054688 78.28429687 36.08453125 77.46703125 35.625 76.625 C35.18414062 75.81289062 34.74328125 75.00078125 34.2890625 74.1640625 C33.0556107 71.89185698 33.0556107 71.89185698 31 70 C30.10747287 68.80455457 29.23356489 67.59506589 28.375 66.375 C27.70597656 65.42753906 27.70597656 65.42753906 27.0234375 64.4609375 C26.51683594 63.73777344 26.51683594 63.73777344 26 63 C21.87343963 65.4709506 17.74748811 67.94291374 13.62207031 70.41577148 C12.22184205 71.25490966 10.82145477 72.09378254 9.42089844 72.93237305 C7.39475149 74.1456044 5.36915533 75.35974979 3.34375 76.57421875 C2.69220947 76.96439178 2.04066895 77.35456482 1.36938477 77.75656128 C-2.06621873 79.8190354 -5.46959615 81.91979658 -8.84375 84.08203125 C-12 86 -12 86 -14 86 C-14 121.31 -14 156.62 -14 193 C-6.41 193.66 1.18 194.32 9 195 C14.31494078 195.52690181 19.62665212 196.06142329 24.9375 196.625 C26.21689453 196.7590625 27.49628906 196.893125 28.81445312 197.03125 C31.87649677 197.35236319 34.93833993 197.67525383 38 198 C37.59225342 197.5265918 37.18450684 197.05318359 36.7644043 196.56542969 C36.22726807 195.94055664 35.69013184 195.31568359 35.13671875 194.671875 C34.60522217 194.0540918 34.07372559 193.43630859 33.52612305 192.79980469 C32.26003907 191.30667222 31.03118639 189.78206289 29.8125 188.25 C28.14926558 186.09408033 28.14926558 186.09408033 26.6640625 184.6953125 C24.4703992 182.46045364 22.53677464 180.05538868 20.5625 177.625 C19.41974609 176.22121094 19.41974609 176.22121094 18.25390625 174.7890625 C17.51011719 173.86867187 16.76632813 172.94828125 16 172 C14.86884766 170.83597656 14.86884766 170.83597656 13.71484375 169.6484375 C9.26386517 162.77426102 12.96370545 151.81545882 14.1875 144.21875 C14.41223787 142.79537252 14.6364316 141.37190902 14.86010742 139.94836426 C15.44653101 136.22560702 16.04027777 132.50405475 16.63562012 128.78271484 C17.24332657 124.97564257 17.84401304 121.16746349 18.4453125 117.359375 C19.62338741 109.90515673 20.80921037 102.45219889 22 95 C22.99 95 23.98 95 25 95 C26.55818071 96.8822823 27.89884749 98.72465221 29.25 100.75 C30.14331924 102.04470703 31.03931579 103.33756947 31.9375 104.62890625 C32.42605469 105.33289551 32.91460937 106.03688477 33.41796875 106.76220703 C36.27431803 110.80253072 39.26796097 114.7395563 42.25 118.6875 C47.78111385 126.02980982 53.26092944 133.4068782 58.70092773 140.81689453 C63.84365468 147.81182216 69.05542861 154.75403439 74.29101562 161.6796875 C74.89236328 162.47761719 75.49371094 163.27554688 76.11328125 164.09765625 C76.64735596 164.80414307 77.18143066 165.51062988 77.73168945 166.23852539 C82.09876245 172.30367105 81.17083362 181.29182303 81.31640625 188.4921875 C81.33723267 189.38461655 81.35805908 190.27704559 81.3795166 191.19651794 C81.4451582 194.08926498 81.5042532 196.98209529 81.5625 199.875 C81.58367889 200.86156586 81.60485779 201.84813171 81.62667847 202.86459351 C82.02638453 221.57776084 82.11886441 240.28342768 82 259 C78.64759845 257.3754941 75.73674981 255.45920561 72.6875 253.3125 C55.01308851 241.47236026 33.24491442 234.06063869 12 233 C11.01386719 232.94714844 10.02773437 232.89429688 9.01171875 232.83984375 C-19.05344629 232.08132578 -47.58187434 240.94880716 -70 258 C-70.66 258.66 -71.32 259.32 -72 260 C-73 257 -73 257 -71.84126282 254.2568512 C-71.25467392 253.1312529 -70.66808502 252.0056546 -70.0637207 250.84594727 C-57.59131302 225.45703643 -57.2807355 202.16387778 -58.09698486 174.29522705 C-58.24754865 168.70995028 -58.32446537 163.12377197 -58.40429688 157.53710938 C-58.50015894 151.03108461 -58.59971073 144.52545491 -58.73483276 138.02011108 C-59.08456504 120.6502297 -58.78557681 103.35448068 -58 86 C-58.93158936 85.69529785 -59.86317871 85.3905957 -60.82299805 85.07666016 C-63.94051585 84.0201587 -66.83378315 82.77261551 -69.8125 81.375 C-70.93527344 80.85035156 -72.05804688 80.32570313 -73.21484375 79.78515625 C-74.47682814 79.19066774 -75.73853042 78.59558012 -77 78 C-77.70785645 77.66597168 -78.41571289 77.33194336 -79.14501953 76.98779297 C-80.25079346 76.46596436 -80.25079346 76.46596436 -81.37890625 75.93359375 C-82.12487061 75.58184082 -82.87083496 75.23008789 -83.6394043 74.86767578 C-85.09342249 74.18139571 -86.54674951 73.49364866 -87.99926758 72.80419922 C-91.28786535 71.24876552 -94.57457922 69.7561328 -97.9453125 68.38671875 C-101 67 -101 67 -102 65 C-103.98523136 64.29056297 -105.98918279 63.63329186 -108 63 C-110.4704498 61.97902182 -112.92572093 60.94368335 -115.375 59.875 C-116.01566406 59.59785156 -116.65632813 59.32070313 -117.31640625 59.03515625 C-118.87856925 58.35899615 -120.43942315 57.67981293 -122 57 C-121.67 56.01 -121.34 55.02 -121 54 C-120.10506836 54.02094727 -119.21013672 54.04189453 -118.28808594 54.06347656 C-94.78666058 54.54014219 -73.84756055 53.56228239 -52 44 C-50.23076172 43.23042969 -50.23076172 43.23042969 -48.42578125 42.4453125 C-28.7989631 33.25829124 -11.81059751 18.14983196 0 0 Z " fill="#9400FB" transform="translate(226,3)"/>
<path d="M0 0 C0.66 0 1.32 0 2 0 C2.68234304 25.62577183 0.05437365 55.12524439 -17.375 75.5 C-30.60128462 89.08194942 -50.6895494 94.45460323 -69.32177734 95.07763672 C-71.71538547 95.09762815 -74.10645981 95.08783878 -76.5 95.0625 C-77.73363281 95.05573242 -77.73363281 95.05573242 -78.9921875 95.04882812 C-80.99482396 95.03718489 -82.99742227 95.01925556 -85 95 C-85.12289902 96.2589357 -85.24579803 97.5178714 -85.37242126 98.81495667 C-85.97973522 104.25693773 -86.98544491 109.59035948 -88.04125977 114.96069336 C-88.24623077 116.01883743 -88.45120178 117.07698151 -88.66238403 118.16719055 C-89.10505456 120.45090479 -89.54925789 122.73432234 -89.99484444 125.01746941 C-90.7005772 128.6368777 -91.40088193 132.25729727 -92.09959412 135.87806702 C-94.085838 146.16793732 -96.07849535 156.45654445 -98.08276367 166.74291992 C-99.31082192 173.04764693 -100.52980278 179.35407319 -101.74311638 185.66165352 C-102.2057601 188.05718643 -102.67182911 190.45206056 -103.14145088 192.84623528 C-103.79888058 196.19920703 -104.4447337 199.55422433 -105.08813477 202.90991211 C-105.28292923 203.88840118 -105.47772369 204.86689026 -105.67842102 205.87503052 C-109.34722962 225.26656667 -104.8354128 246.58839277 -93.75 263 C-81.76546139 279.14528375 -61.42682777 288.05342765 -42 291.375 C-27.86818672 293.00316193 -15.34151861 290.19383252 -1.82495117 286.44311523 C0 286 0 286 2 286 C2 286.66 2 287.32 2 288 C-1.88593693 290.10217605 -5.78538075 292.17803901 -9.6875 294.25 C-10.77095703 294.83652344 -11.85441406 295.42304688 -12.97070312 296.02734375 C-32.77866251 306.48970805 -56.67113523 309.96038222 -78.625 304.3125 C-80.76973566 303.5984146 -82.89855403 302.83290688 -85 302 C-85.93714844 301.649375 -86.87429688 301.29875 -87.83984375 300.9375 C-108.76499271 292.29124046 -126.75439796 275.78139909 -136 255 C-142.83141052 237.59572525 -142.25765834 222.16593087 -140.94140625 203.8203125 C-140.83126446 202.23048874 -140.72156842 200.64063404 -140.61228943 199.05075073 C-140.38441621 195.75136517 -140.153047 192.45225237 -139.91870117 189.15332031 C-139.62023126 184.95133418 -139.32792283 180.74894937 -139.03788853 176.54637337 C-138.75781037 172.49170744 -138.47474286 168.43725182 -138.19140625 164.3828125 C-138.13870638 163.62537876 -138.08600651 162.86794502 -138.03170967 162.08755875 C-137.47003918 154.04492161 -136.8580491 146.01731934 -136 138 C-137.03125 137.87625 -138.0625 137.7525 -139.125 137.625 C-142.62922695 137.05980211 -145.66136944 136.16331886 -149 135 C-148.97557327 136.20554535 -148.95114655 137.4110907 -148.92597961 138.65316772 C-148.70254454 150.03993416 -148.53788675 161.42625338 -148.43006611 172.81471825 C-148.37276769 178.66924087 -148.29511574 184.5219877 -148.17016602 190.37548828 C-148.05023353 196.02963193 -147.98479005 201.68207305 -147.95635033 207.3373909 C-147.93609693 209.48969952 -147.89654292 211.64191966 -147.83696938 213.79349899 C-147.36595352 231.51728245 -147.36595352 231.51728245 -151.32211304 236.44390869 C-154.09106383 238.99671843 -156.82676683 240.98435665 -160 243 C-161.91170604 244.5430393 -163.8097436 246.10332161 -165.6875 247.6875 C-167.03714844 248.77417969 -167.03714844 248.77417969 -168.4140625 249.8828125 C-171.51377847 252.42064642 -174.48900234 255.07827449 -177.44140625 257.78515625 C-179 259 -179 259 -181 259 C-181.01030746 258.22074158 -181.02061493 257.44148315 -181.03123474 256.63861084 C-181.13187386 249.0587566 -181.23460646 241.47893428 -181.33933926 233.89913559 C-181.39303599 230.00829097 -181.44609362 226.11744056 -181.49731445 222.2265625 C-181.55718889 217.68746812 -181.61952092 213.14841201 -181.68359375 208.609375 C-181.69451553 207.82966465 -181.70543732 207.0499543 -181.71669006 206.24661636 C-181.84789197 197.05086546 -182.01712458 187.85724473 -182.25390625 178.66357422 C-182.93208741 152.20077938 -183.15798322 125.75707187 -183.13037109 99.28564453 C-183.12454013 93.63314568 -183.12805982 87.98069294 -183.13394356 82.32819557 C-183.13754713 77.91018317 -183.13641381 73.49218188 -183.13381577 69.07416916 C-183.13315276 66.98581308 -183.13395282 64.89745597 -183.13629532 62.8091011 C-183.13883283 59.92690544 -183.13497178 57.04478751 -183.12939453 54.16259766 C-183.13141876 53.31822144 -183.13344299 52.47384521 -183.13552856 51.60388184 C-183.12005171 47.28943115 -182.8611179 43.2491753 -182 39 C-178.78022765 40.5020647 -175.98513092 42.36212036 -173.0625 44.375 C-161.49094801 51.70671085 -148.79468727 53.87595449 -135.34765625 51.5390625 C-133.55112218 51.07738335 -131.77288177 50.54550208 -130 50 C-128.68 50 -127.36 50 -126 50 C-126.57080566 53.96350576 -127.41230574 57.50142182 -128.84179688 61.23925781 C-129.21888794 62.23338684 -129.595979 63.22751587 -129.98449707 64.25177002 C-130.39180054 65.30821716 -130.799104 66.36466431 -131.21875 67.453125 C-131.84565735 69.09797882 -131.84565735 69.09797882 -132.48522949 70.77606201 C-133.81825817 74.26939848 -135.15915126 77.75965871 -136.5 81.25 C-137.40283417 83.61439613 -138.30518347 85.97897746 -139.20703125 88.34375 C-140.85462068 92.65634955 -142.50253155 96.96881643 -144.15820312 101.27832031 C-144.49049927 102.14402649 -144.82279541 103.00973267 -145.16516113 103.90167236 C-146 106 -146 106 -147 108 C-146.24074219 108.13277344 -145.48148437 108.26554687 -144.69921875 108.40234375 C-143.70535156 108.57894531 -142.71148437 108.75554687 -141.6875 108.9375 C-140.70136719 109.11152344 -139.71523438 109.28554687 -138.69921875 109.46484375 C-136 110 -136 110 -133 111 C-132.89558594 109.7625 -132.79117188 108.525 -132.68359375 107.25 C-132.0276677 101.35704052 -130.55890296 95.72724009 -129.0625 90 C-128.53144108 87.93778579 -128.00147573 85.87528962 -127.47265625 83.8125 C-127.21806641 82.81984131 -126.96347656 81.82718262 -126.70117188 80.80444336 C-125.9100232 77.64012414 -125.19499137 74.46495631 -124.50268555 71.27783203 C-123.51837206 66.81758683 -122.43834438 62.37943569 -121.375 57.9375 C-121.03082031 56.49600586 -121.03082031 56.49600586 -120.6796875 55.02539062 C-120.12041658 52.68344365 -119.56051001 50.34165067 -119 48 C-115.13383378 48.71730757 -111.86997153 49.82760284 -108.25 51.375 C-88.04346899 59.26996398 -66.35097398 58.80735651 -46.37060547 50.46533203 C-27.9278651 42.37006824 -11.96039109 29.89530554 -4 11 C-2.58870094 7.35838571 -1.2581682 3.69718701 0 0 Z " fill="#FAB100" transform="translate(498,0)"/>
<path d="M0 0 C0.66 0 1.32 0 2 0 C3.06514653 4.4244548 3.99204873 8.8225161 4.66015625 13.32421875 C4.77834717 14.10168457 4.89653809 14.87915039 5.01831055 15.68017578 C5.25117658 17.23548499 5.47319602 18.79246786 5.68286133 20.35107422 C7.05725764 29.41716375 10.61019367 35.6282682 17.7578125 41.42578125 C31.82955212 51.77894329 52.73424697 56.65094507 69.99609375 55.82421875 C86.26463659 55.2427712 97.13068705 60.74125874 110.81738281 69.07470703 C114.82679415 71.50016099 118.90390925 73.79038528 122.99389648 76.07641602 C125.82544957 77.6597919 128.64608076 79.26117405 131.46484375 80.8671875 C139.92460425 85.6717185 148.46200583 90.33634211 157 95 C157 95.66 157 96.32 157 97 C143.63157406 96.50588017 130.29041397 95.72407171 116.9453125 94.80859375 C116.14654442 94.75385517 115.34777634 94.69911659 114.52480316 94.64271927 C107.87308976 94.18593331 101.22181054 93.72294154 94.57055664 93.25952148 C89.56848545 92.91119448 84.56627015 92.56509088 79.56383896 92.22197151 C77.25058088 92.06240609 74.93756481 91.89961716 72.62454224 91.73667908 C71.20038964 91.63866124 69.77622637 91.54079838 68.35205078 91.44311523 C67.12157013 91.35730698 65.89108948 91.27149872 64.62332153 91.18309021 C60.73707929 90.98671434 56.89044214 90.96956793 53 91 C71.62692279 115.62122508 100.62297471 126.28270049 130.42254639 130.652771 C134.04062014 131.14019011 137.66325831 131.59004288 141.28613281 132.04003906 C142.0286026 132.13253937 142.77107239 132.22503967 143.53604126 132.32034302 C145.35732265 132.54720214 147.17865614 132.77364292 149 133 C149.13975208 144.9795948 149.24600007 156.95899189 149.31087303 168.9392395 C149.34202768 174.50373372 149.3842071 180.06766537 149.45263672 185.63183594 C149.51839945 191.01356439 149.55382495 196.39475584 149.56926346 201.77685547 C149.58024855 203.81795695 149.60169647 205.859033 149.63438034 207.89990234 C149.83500778 220.96123583 148.66541806 231.1109214 143 243 C142.68633862 243.66135956 142.37267723 244.32271912 142.04951096 245.00411987 C137.25668708 255.03613051 131.21604167 263.55941793 124 272 C123.12601563 273.02867187 123.12601563 273.02867187 122.234375 274.078125 C103.11327736 294.74436184 73.19172262 304.04877663 45.87890625 305.25 C31.41068962 305.66900278 16.01079235 304.89918461 2 301 C1.67 300.34 1.34 299.68 1 299 C4.21579047 298.07379526 7.25624112 297.78574894 10.59375 297.60546875 C40.42024688 295.81905962 66.10497 291.29332205 89 271 C89.66 271 90.32 271 91 271 C91 270.34 91 269.68 91 269 C91.66 269 92.32 269 93 269 C93.41572266 268.09701172 93.41572266 268.09701172 93.83984375 267.17578125 C95 265 95 265 97.5625 262.1875 C107.8053565 250.4169803 116.96429141 233.06084999 117.20532227 217.22167969 C117.22526749 216.0607782 117.24521271 214.89987671 117.26576233 213.70379639 C117.28247482 212.45576233 117.29918732 211.20772827 117.31640625 209.921875 C117.3475779 207.99930878 117.3475779 207.99930878 117.37937927 206.03790283 C117.43444747 202.63823728 117.48392364 199.23851262 117.53222656 195.83874512 C117.58255332 192.36640186 117.63818093 188.89414395 117.69335938 185.421875 C117.80075422 178.61465739 117.90224027 171.80736261 118 165 C116.96480225 165.18570557 115.92960449 165.37141113 114.86303711 165.56274414 C111.18614778 165.97893 108.75819452 165.8154788 105.19140625 164.99609375 C104.12245117 164.7532666 103.05349609 164.51043945 101.95214844 164.26025391 C100.27427246 163.85299072 100.27427246 163.85299072 98.5625 163.4375 C97.40395508 163.16083496 96.24541016 162.88416992 95.05175781 162.59912109 C63.05517753 154.73162165 37.87594988 137.51141068 20.546875 109.29296875 C15.88627055 101.54218092 11.49057657 93.99622317 10 85 C9.34 84.67 8.68 84.34 8 84 C4.88052763 75.94421971 3.62210085 66.89940946 1.8671875 58.453125 C1.72394043 57.76379883 1.58069336 57.07447266 1.43310547 56.36425781 C0.17773503 49.51137883 -0.13380208 42.98196255 -0.09765625 36.03515625 C-0.0962413 35.00184677 -0.09482635 33.96853729 -0.09336853 32.90391541 C-0.08779839 29.6234134 -0.07525141 26.34298117 -0.0625 23.0625 C-0.05748114 20.83007911 -0.05291891 18.59765715 -0.04882812 16.36523438 C-0.03783875 10.91013269 -0.0211305 5.45507133 0 0 Z " fill="#FAB000" transform="translate(0,1)"/>
<path d="M0 0 C0.66 0 1.32 0 2 0 C2.68234304 25.62577183 0.05437365 55.12524439 -17.375 75.5 C-30.60128462 89.08194942 -50.6895494 94.45460323 -69.32177734 95.07763672 C-71.71538547 95.09762815 -74.10645981 95.08783878 -76.5 95.0625 C-77.73363281 95.05573242 -77.73363281 95.05573242 -78.9921875 95.04882812 C-80.99482396 95.03718489 -82.99742227 95.01925556 -85 95 C-85.12289902 96.2589357 -85.24579803 97.5178714 -85.37242126 98.81495667 C-85.97973522 104.25693773 -86.98544491 109.59035948 -88.04125977 114.96069336 C-88.24623077 116.01883743 -88.45120178 117.07698151 -88.66238403 118.16719055 C-89.10505456 120.45090479 -89.54925789 122.73432234 -89.99484444 125.01746941 C-90.7005772 128.6368777 -91.40088193 132.25729727 -92.09959412 135.87806702 C-94.085838 146.16793732 -96.07849535 156.45654445 -98.08276367 166.74291992 C-99.31082192 173.04764693 -100.52980278 179.35407319 -101.74311638 185.66165352 C-102.2057601 188.05718643 -102.67182911 190.45206056 -103.14145088 192.84623528 C-103.79888058 196.19920703 -104.4447337 199.55422433 -105.08813477 202.90991211 C-105.28292923 203.88840118 -105.47772369 204.86689026 -105.67842102 205.87503052 C-109.34722962 225.26656667 -104.8354128 246.58839277 -93.75 263 C-81.76546139 279.14528375 -61.42682777 288.05342765 -42 291.375 C-27.86818672 293.00316193 -15.34151861 290.19383252 -1.82495117 286.44311523 C0 286 0 286 2 286 C2 286.66 2 287.32 2 288 C-1.88593693 290.10217605 -5.78538075 292.17803901 -9.6875 294.25 C-10.77095703 294.83652344 -11.85441406 295.42304688 -12.97070312 296.02734375 C-32.77866251 306.48970805 -56.67113523 309.96038222 -78.625 304.3125 C-80.76973566 303.5984146 -82.89855403 302.83290688 -85 302 C-85.93714844 301.649375 -86.87429688 301.29875 -87.83984375 300.9375 C-108.76499271 292.29124046 -126.75439796 275.78139909 -136 255 C-142.83141052 237.59572525 -142.25765834 222.16593087 -140.94140625 203.8203125 C-140.83126446 202.23048874 -140.72156842 200.64063404 -140.61228943 199.05075073 C-140.38441621 195.75136517 -140.153047 192.45225237 -139.91870117 189.15332031 C-139.62023126 184.95133418 -139.32792283 180.74894937 -139.03788853 176.54637337 C-138.75781037 172.49170744 -138.47474286 168.43725182 -138.19140625 164.3828125 C-138.13870638 163.62537876 -138.08600651 162.86794502 -138.03170967 162.08755875 C-137.47003918 154.04492161 -136.8580491 146.01731934 -136 138 C-137.03125 137.87625 -138.0625 137.7525 -139.125 137.625 C-142.62922695 137.05980211 -145.66136944 136.16331886 -149 135 C-148.97557327 136.20554535 -148.95114655 137.4110907 -148.92597961 138.65316772 C-148.70254454 150.03993416 -148.53788675 161.42625338 -148.43006611 172.81471825 C-148.37276769 178.66924087 -148.29511574 184.5219877 -148.17016602 190.37548828 C-148.05023353 196.02963193 -147.98479005 201.68207305 -147.95635033 207.3373909 C-147.93609693 209.48969952 -147.89654292 211.64191966 -147.83696938 213.79349899 C-147.36595352 231.51728245 -147.36595352 231.51728245 -151.32211304 236.44390869 C-154.09106383 238.99671843 -156.82676683 240.98435665 -160 243 C-161.91170604 244.5430393 -163.8097436 246.10332161 -165.6875 247.6875 C-167.03714844 248.77417969 -167.03714844 248.77417969 -168.4140625 249.8828125 C-171.51377847 252.42064642 -174.48900234 255.07827449 -177.44140625 257.78515625 C-179 259 -179 259 -181 259 C-181.01030746 258.22074158 -181.02061493 257.44148315 -181.03123474 256.63861084 C-181.13187386 249.0587566 -181.23460646 241.47893428 -181.33933926 233.89913559 C-181.39303599 230.00829097 -181.44609362 226.11744056 -181.49731445 222.2265625 C-181.55718889 217.68746812 -181.61952092 213.14841201 -181.68359375 208.609375 C-181.69451553 207.82966465 -181.70543732 207.0499543 -181.71669006 206.24661636 C-181.84789197 197.05086546 -182.01712458 187.85724473 -182.25390625 178.66357422 C-182.93208741 152.20077938 -183.15798322 125.75707187 -183.13037109 99.28564453 C-183.12454013 93.63314568 -183.12805982 87.98069294 -183.13394356 82.32819557 C-183.13754713 77.91018317 -183.13641381 73.49218188 -183.13381577 69.07416916 C-183.13315276 66.98581308 -183.13395282 64.89745597 -183.13629532 62.8091011 C-183.13883283 59.92690544 -183.13497178 57.04478751 -183.12939453 54.16259766 C-183.13141876 53.31822144 -183.13344299 52.47384521 -183.13552856 51.60388184 C-183.12005171 47.28943115 -182.8611179 43.2491753 -182 39 C-178.78022765 40.5020647 -175.98513092 42.36212036 -173.0625 44.375 C-161.49094801 51.70671085 -148.79468727 53.87595449 -135.34765625 51.5390625 C-133.55112218 51.07738335 -131.77288177 50.54550208 -130 50 C-128.68 50 -127.36 50 -126 50 C-126.57080566 53.96350576 -127.41230574 57.50142182 -128.84179688 61.23925781 C-129.21888794 62.23338684 -129.595979 63.22751587 -129.98449707 64.25177002 C-130.39180054 65.30821716 -130.799104 66.36466431 -131.21875 67.453125 C-131.84565735 69.09797882 -131.84565735 69.09797882 -132.48522949 70.77606201 C-133.81825817 74.26939848 -135.15915126 77.75965871 -136.5 81.25 C-137.40283417 83.61439613 -138.30518347 85.97897746 -139.20703125 88.34375 C-140.85462068 92.65634955 -142.50253155 96.96881643 -144.15820312 101.27832031 C-144.49049927 102.14402649 -144.82279541 103.00973267 -145.16516113 103.90167236 C-146 106 -146 106 -147 108 C-146.24074219 108.13277344 -145.48148437 108.26554687 -144.69921875 108.40234375 C-143.70535156 108.57894531 -142.71148437 108.75554687 -141.6875 108.9375 C-140.70136719 109.11152344 -139.71523438 109.28554687 -138.69921875 109.46484375 C-136 110 -136 110 -133 111 C-132.89558594 109.7625 -132.79117188 108.525 -132.68359375 107.25 C-132.0276677 101.35704052 -130.55890296 95.72724009 -129.0625 90 C-128.53144108 87.93778579 -128.00147573 85.87528962 -127.47265625 83.8125 C-127.21806641 82.81984131 -126.96347656 81.82718262 -126.70117188 80.80444336 C-125.9100232 77.64012414 -125.19499137 74.46495631 -124.50268555 71.27783203 C-123.51837206 66.81758683 -122.43834438 62.37943569 -121.375 57.9375 C-121.03082031 56.49600586 -121.03082031 56.49600586 -120.6796875 55.02539062 C-120.12041658 52.68344365 -119.56051001 50.34165067 -119 48 C-115.13383378 48.71730757 -111.86997153 49.82760284 -108.25 51.375 C-88.04346899 59.26996398 -66.35097398 58.80735651 -46.37060547 50.46533203 C-27.9278651 42.37006824 -11.96039109 29.89530554 -4 11 C-2.58870094 7.35838571 -1.2581682 3.69718701 0 0 Z M-6 26 C-7.31068127 27.63073135 -8.59762542 29.2805497 -9.875 30.9375 C-23.41666319 47.571354 -44.66340324 59.30701485 -66 62 C-70.54551059 62.33118224 -75.06820245 62.4278193 -79.625 62.4375 C-80.84960938 62.44064209 -82.07421875 62.44378418 -83.3359375 62.44702148 C-93.33249392 62.31586941 -101.72110373 60.5375792 -111 57 C-112.32657676 56.64071879 -113.65702985 56.29209601 -115 56 C-115.19335938 56.92941406 -115.38671875 57.85882813 -115.5859375 58.81640625 C-115.97652344 60.67072266 -115.97652344 60.67072266 -116.375 62.5625 C-116.75785156 64.38974609 -116.75785156 64.38974609 -117.1484375 66.25390625 C-117.68410223 68.61033961 -118.275589 70.95545113 -118.9453125 73.27734375 C-120.32425324 78.14449384 -121.40497445 83.06243026 -122.5 88 C-123.84325064 94.05683925 -125.2316151 100.05248327 -127 106 C-128.12450361 110.07459025 -129 113.72834277 -129 118 C-129.65073486 117.81824219 -130.30146973 117.63648437 -130.97192383 117.44921875 C-133.91769086 116.62883197 -136.86505925 115.81435202 -139.8125 115 C-140.83666016 114.71382813 -141.86082031 114.42765625 -142.91601562 114.1328125 C-143.89892578 113.86210938 -144.88183594 113.59140625 -145.89453125 113.3125 C-146.80050049 113.06113281 -147.70646973 112.80976562 -148.63989258 112.55078125 C-151.0829959 111.88636768 -151.0829959 111.88636768 -154 112 C-151.11338153 103.59335674 -148.10503227 95.23706853 -144.96484375 86.921875 C-144.56324539 85.85743164 -144.56324539 85.85743164 -144.15353394 84.77148438 C-142.79187314 81.16516209 -141.4249598 77.5609273 -140.05175781 73.95898438 C-139.53829556 72.60290846 -139.02494458 71.24679041 -138.51171875 69.890625 C-138.05240967 68.68438477 -137.59310059 67.47814453 -137.11987305 66.23535156 C-136.16444049 63.47507419 -135.47659263 60.87515953 -135 58 C-136.29292969 58.04640625 -137.58585937 58.0928125 -138.91796875 58.140625 C-150.79802961 58.43699716 -160.43283165 57.8385515 -171.2265625 52.36328125 C-173.78408225 50.85295463 -173.78408225 50.85295463 -176 51 C-176 115.68 -176 180.36 -176 247 C-171.94974131 244.97487066 -168.88013442 242.50191394 -165.5 239.5625 C-164.36546639 238.58361102 -163.23007067 237.60572019 -162.09375 236.62890625 C-161.34641602 235.9803064 -161.34641602 235.9803064 -160.58398438 235.31860352 C-159 234 -159 234 -156.92938232 233.03555298 C-153.70472204 229.63344508 -154.47853646 225.61716859 -154.54589844 221.11254883 C-154.54502228 219.5903347 -154.54502228 219.5903347 -154.54412842 218.03736877 C-154.54691923 214.67691052 -154.57805922 211.3173349 -154.609375 207.95703125 C-154.61683382 205.62961817 -154.62252844 203.30219882 -154.62652588 200.97477722 C-154.64181036 194.84419464 -154.68111686 188.71399015 -154.7253418 182.58355713 C-154.76623359 176.32984533 -154.78452389 170.07607253 -154.8046875 163.82226562 C-154.84760802 151.54801082 -154.9158937 139.27403683 -155 127 C-154.03320312 127.33773437 -153.06640625 127.67546875 -152.0703125 128.0234375 C-144.77768612 130.53435207 -137.64486741 132.79480914 -130 134 C-130.386287 139.90035968 -130.77716325 145.80039322 -131.171875 151.70019531 C-131.30490155 153.6975122 -131.4367811 155.6949059 -131.56738281 157.69238281 C-132.29989272 168.88288037 -133.15967172 180.0378022 -134.32391357 191.1920166 C-135.28808647 200.54598944 -135.6362881 209.89169356 -135.90332031 219.28808594 C-135.98861254 221.68057586 -136.13172084 224.05793188 -136.3046875 226.4453125 C-137.21534072 244.76765532 -127.59396596 261.08687706 -116.1875 274.8125 C-102.5848415 289.27201887 -82.35061036 300.19802937 -62.3125 301.37109375 C-53.40706562 301.6177144 -44.73763782 300.72900254 -36 299 C-36 298.67 -36 298.34 -36 298 C-37.00417969 297.82984375 -38.00835937 297.6596875 -39.04296875 297.484375 C-61.03628445 293.64697846 -83.03406537 286.17970821 -97.25 267.875 C-109.91478468 249.24115697 -114.70836442 228.37295865 -111.421875 206.078125 C-110.93549398 203.83249348 -110.41109456 201.59473429 -109.84765625 199.3671875 C-108.92611775 195.70651381 -108.25355292 192.03140108 -107.625 188.3125 C-104.64509514 171.08636537 -101.45349287 153.91092791 -97.81176758 136.81201172 C-96.12797026 128.82180994 -94.68519369 120.80138786 -93.34350586 112.74707031 C-92.63775295 108.53327642 -91.87509674 104.37227916 -90.88671875 100.21484375 C-90.0852686 96.74989854 -89.81683408 93.57173549 -90 90 C-89.09121094 90.02320312 -88.18242187 90.04640625 -87.24609375 90.0703125 C-77.97861645 90.20338397 -69.17585019 89.44191932 -60 88 C-58.45699219 87.80083984 -58.45699219 87.80083984 -56.8828125 87.59765625 C-42.50873093 85.59596054 -29.38030655 80.81142127 -19.8828125 69.58203125 C-11.46525556 58.03845213 -4.46733522 40.4352156 -5 26 C-5.33 26 -5.66 26 -6 26 Z " fill="#060400" transform="translate(498,0)"/>
<path d="M0 0 C3.20894988 1.36158001 4.75167711 2.68492543 6.6875 5.5625 C18.15110459 21.33208542 35.28645047 31.01636463 54.37646484 34.4543457 C59.91104327 35.23398657 65.43387755 35.12818588 71.01171875 35.07421875 C72.07177124 35.06886108 73.13182373 35.06350342 74.22399902 35.0579834 C76.81608443 35.04410636 79.40799846 35.02465189 82 35 C82.14948029 70.01288437 81.75870517 104.99527078 81 140 C76.70673582 138.56891194 75.50919291 135.34215642 73.3125 131.625 C68.74455001 124.09498709 63.83901201 116.99463297 58.46875 110.0078125 C56.83721195 107.77746527 55.39115919 105.47514188 53.9375 103.125 C50.57690822 97.78122638 46.95242625 92.66949278 43.20092773 87.59619141 C40 83.21205584 40 83.21205584 40 81 C39.34 81 38.68 81 38 81 C37.66226563 80.37351562 37.32453125 79.74703125 36.9765625 79.1015625 C36.53054688 78.28429687 36.08453125 77.46703125 35.625 76.625 C35.18414062 75.81289062 34.74328125 75.00078125 34.2890625 74.1640625 C33.0556107 71.89185698 33.0556107 71.89185698 31 70 C30.10747287 68.80455457 29.23356489 67.59506589 28.375 66.375 C27.70597656 65.42753906 27.70597656 65.42753906 27.0234375 64.4609375 C26.51683594 63.73777344 26.51683594 63.73777344 26 63 C21.87343963 65.4709506 17.74748811 67.94291374 13.62207031 70.41577148 C12.22184205 71.25490966 10.82145477 72.09378254 9.42089844 72.93237305 C7.39475149 74.1456044 5.36915533 75.35974979 3.34375 76.57421875 C2.69220947 76.96439178 2.04066895 77.35456482 1.36938477 77.75656128 C-2.06621873 79.8190354 -5.46959615 81.91979658 -8.84375 84.08203125 C-12 86 -12 86 -14 86 C-14 121.31 -14 156.62 -14 193 C-6.41 193.66 1.18 194.32 9 195 C14.31494078 195.52690181 19.62665212 196.06142329 24.9375 196.625 C26.21689453 196.7590625 27.49628906 196.893125 28.81445312 197.03125 C31.87649677 197.35236319 34.93833993 197.67525383 38 198 C37.59225342 197.5265918 37.18450684 197.05318359 36.7644043 196.56542969 C36.22726807 195.94055664 35.69013184 195.31568359 35.13671875 194.671875 C34.60522217 194.0540918 34.07372559 193.43630859 33.52612305 192.79980469 C32.26003907 191.30667222 31.03118639 189.78206289 29.8125 188.25 C28.14926558 186.09408033 28.14926558 186.09408033 26.6640625 184.6953125 C24.4703992 182.46045364 22.53677464 180.05538868 20.5625 177.625 C19.41974609 176.22121094 19.41974609 176.22121094 18.25390625 174.7890625 C17.51011719 173.86867187 16.76632813 172.94828125 16 172 C14.86884766 170.83597656 14.86884766 170.83597656 13.71484375 169.6484375 C9.26386517 162.77426102 12.96370545 151.81545882 14.1875 144.21875 C14.41223787 142.79537252 14.6364316 141.37190902 14.86010742 139.94836426 C15.44653101 136.22560702 16.04027777 132.50405475 16.63562012 128.78271484 C17.24332657 124.97564257 17.84401304 121.16746349 18.4453125 117.359375 C19.62338741 109.90515673 20.80921037 102.45219889 22 95 C22.99 95 23.98 95 25 95 C26.55818071 96.8822823 27.89884749 98.72465221 29.25 100.75 C30.14331924 102.04470703 31.03931579 103.33756947 31.9375 104.62890625 C32.42605469 105.33289551 32.91460937 106.03688477 33.41796875 106.76220703 C36.27431803 110.80253072 39.26796097 114.7395563 42.25 118.6875 C47.78111385 126.02980982 53.26092944 133.4068782 58.70092773 140.81689453 C63.84365468 147.81182216 69.05542861 154.75403439 74.29101562 161.6796875 C74.89236328 162.47761719 75.49371094 163.27554688 76.11328125 164.09765625 C76.64735596 164.80414307 77.18143066 165.51062988 77.73168945 166.23852539 C82.09876245 172.30367105 81.17083362 181.29182303 81.31640625 188.4921875 C81.33723267 189.38461655 81.35805908 190.27704559 81.3795166 191.19651794 C81.4451582 194.08926498 81.5042532 196.98209529 81.5625 199.875 C81.58367889 200.86156586 81.60485779 201.84813171 81.62667847 202.86459351 C82.02638453 221.57776084 82.11886441 240.28342768 82 259 C78.64759845 257.3754941 75.73674981 255.45920561 72.6875 253.3125 C55.01308851 241.47236026 33.24491442 234.06063869 12 233 C11.01386719 232.94714844 10.02773437 232.89429688 9.01171875 232.83984375 C-19.05344629 232.08132578 -47.58187434 240.94880716 -70 258 C-70.66 258.66 -71.32 259.32 -72 260 C-73 257 -73 257 -71.84126282 254.2568512 C-71.25467392 253.1312529 -70.66808502 252.0056546 -70.0637207 250.84594727 C-57.59131302 225.45703643 -57.2807355 202.16387778 -58.09698486 174.29522705 C-58.24754865 168.70995028 -58.32446537 163.12377197 -58.40429688 157.53710938 C-58.50015894 151.03108461 -58.59971073 144.52545491 -58.73483276 138.02011108 C-59.08456504 120.6502297 -58.78557681 103.35448068 -58 86 C-58.93158936 85.69529785 -59.86317871 85.3905957 -60.82299805 85.07666016 C-63.94051585 84.0201587 -66.83378315 82.77261551 -69.8125 81.375 C-70.93527344 80.85035156 -72.05804688 80.32570313 -73.21484375 79.78515625 C-74.47682814 79.19066774 -75.73853042 78.59558012 -77 78 C-77.70785645 77.66597168 -78.41571289 77.33194336 -79.14501953 76.98779297 C-80.25079346 76.46596436 -80.25079346 76.46596436 -81.37890625 75.93359375 C-82.12487061 75.58184082 -82.87083496 75.23008789 -83.6394043 74.86767578 C-85.09342249 74.18139571 -86.54674951 73.49364866 -87.99926758 72.80419922 C-91.28786535 71.24876552 -94.57457922 69.7561328 -97.9453125 68.38671875 C-101 67 -101 67 -102 65 C-103.98523136 64.29056297 -105.98918279 63.63329186 -108 63 C-110.4704498 61.97902182 -112.92572093 60.94368335 -115.375 59.875 C-116.01566406 59.59785156 -116.65632813 59.32070313 -117.31640625 59.03515625 C-118.87856925 58.35899615 -120.43942315 57.67981293 -122 57 C-121.67 56.01 -121.34 55.02 -121 54 C-120.10506836 54.02094727 -119.21013672 54.04189453 -118.28808594 54.06347656 C-94.78666058 54.54014219 -73.84756055 53.56228239 -52 44 C-50.23076172 43.23042969 -50.23076172 43.23042969 -48.42578125 42.4453125 C-28.7989631 33.25829124 -11.81059751 18.14983196 0 0 Z M0 9 C-1.3440093 10.99284138 -2.67541292 12.99419671 -4 15 C-5.64376037 16.68926239 -7.31423304 18.35265508 -9 20 C-9.99319135 21.01206513 -10.98400496 22.02646813 -11.97265625 23.04296875 C-13.00255785 24.09119134 -14.03250623 25.13936797 -15.0625 26.1875 C-15.8369043 26.98704102 -15.8369043 26.98704102 -16.62695312 27.80273438 C-19.22767855 30.43659006 -21.520732 32.63999836 -25 34 C-25 34.66 -25 35.32 -25 36 C-25.78375 36.309375 -26.5675 36.61875 -27.375 36.9375 C-29.92330128 37.92875038 -29.92330128 37.92875038 -32 39 C-32 39.66 -32 40.32 -32 41 C-32.51046875 41.08894531 -33.0209375 41.17789063 -33.546875 41.26953125 C-37.00404634 42.29897558 -40.06753195 44.0215899 -43.25 45.6875 C-56.88539954 52.61512495 -69.87350627 56.81668199 -85 59 C-86.32064074 59.20492701 -87.64096676 59.41189458 -88.9609375 59.62109375 C-91.97210865 60.09465103 -94.98461334 60.55424719 -98 61 C-94.88583092 63.51129131 -91.69522445 65.23797267 -88.08984375 66.9609375 C-86.93419922 67.51523438 -85.77855469 68.06953125 -84.58789062 68.640625 C-83.37109862 69.21876025 -82.15430172 69.79688521 -80.9375 70.375 C-79.75994141 70.93960938 -78.58238281 71.50421875 -77.36914062 72.0859375 C-73.91829691 73.73592586 -70.46000829 75.36933466 -67 77 C-65.9495752 77.5043457 -64.89915039 78.00869141 -63.81689453 78.52832031 C-62.8473584 78.98561523 -61.87782227 79.44291016 -60.87890625 79.9140625 C-60.03013916 80.31834473 -59.18137207 80.72262695 -58.30688477 81.13916016 C-55.78578173 82.23307507 -55.78578173 82.23307507 -52 82 C-52 128.86 -52 175.72 -52 224 C-52.66 224 -53.32 224 -54 224 C-56.83161469 230.9434807 -59.47627343 237.93893523 -62 245 C-58.57711529 243.68897057 -55.28539361 242.1928568 -51.99047852 240.58886719 C-43.85145336 236.65622998 -35.71378091 233.4754029 -27 231 C-25.31197266 230.51853516 -25.31197266 230.51853516 -23.58984375 230.02734375 C5.13774979 223.3065248 36.77812233 227.99154896 63 241 C65.4048915 242.50995115 67.72573855 244.08086073 70.02075195 245.75244141 C72.03386832 247.02134786 73.67514517 247.5648824 76 248 C76.11180291 228.4310512 76.04498916 208.87659811 75.5625 189.3125 C75.54285187 188.45381317 75.52320374 187.59512634 75.50296021 186.7104187 C75.44622825 184.28202842 75.38264738 181.85392865 75.31640625 179.42578125 C75.29968872 178.70039154 75.28297119 177.97500183 75.26574707 177.22763062 C75.20121356 173.48845072 75.20121356 173.48845072 74 170 C73.34 170 72.68 170 72 170 C71.67 168.68 71.34 167.36 71 166 C70.34 166 69.68 166 69 166 C68.67 164.68 68.34 163.36 68 162 C67.34 162 66.68 162 66 162 C65.67 160.68 65.34 159.36 65 158 C64.34 158 63.68 158 63 158 C62.67 156.68 62.34 155.36 62 154 C61.34 154 60.68 154 60 154 C59.566875 152.8553125 59.566875 152.8553125 59.125 151.6875 C58.03730987 148.84970692 58.03730987 148.84970692 56 146 C55.34 146 54.68 146 54 146 C53.7525 145.29875 53.505 144.5975 53.25 143.875 C51.82819762 140.60485452 50.12753712 137.858878 48 135 C47.34 135 46.68 135 46 135 C45.67 133.68 45.34 132.36 45 131 C44.34 131 43.68 131 43 131 C42.67 129.68 42.34 128.36 42 127 C41.34 127 40.68 127 40 127 C39.67 125.68 39.34 124.36 39 123 C38.34 123 37.68 123 37 123 C36.67 121.68 36.34 120.36 36 119 C35.34 119 34.68 119 34 119 C33.67 117.68 33.34 116.36 33 115 C32.34 115 31.68 115 31 115 C30.67 113.68 30.34 112.36 30 111 C29.34 111 28.68 111 28 111 C27.67 110.01 27.34 109.02 27 108 C24.82890542 111.25664188 24.53844689 112.99436347 24.03515625 116.8203125 C23.79684082 118.57142334 23.79684082 118.57142334 23.55371094 120.35791016 C23.39161133 121.6010498 23.22951172 122.84418945 23.0625 124.125 C21.95280862 132.32856591 20.80679133 140.49371523 19.25 148.625 C18.15510599 154.54926436 17.71359339 159.98546129 18 166 C18.928125 166.3403125 18.928125 166.3403125 19.875 166.6875 C22.6620082 168.40888742 22.81853505 169.9792581 24 173 C25.64500006 174.96275221 27.28573982 176.79252682 29.0625 178.625 C33.57103145 183.40065971 37.79592338 188.32412831 41.91796875 193.44140625 C44.85089048 197.04565341 47.91573066 200.52551496 51 204 C42.51496998 204.20530105 34.23559855 203.56911963 25.80078125 202.6875 C24.47133673 202.5524982 23.14184245 202.41798568 21.81230164 202.28393555 C18.35134813 201.93368558 14.89110083 201.5768944 11.43096924 201.21862793 C7.88472887 200.85265274 4.33784584 200.49301808 0.79101562 200.1328125 C-6.13995632 199.42799816 -13.07020127 198.71625529 -20 198 C-20.07969621 183.23971917 -20.10792171 168.4800864 -20.07515812 153.71961021 C-20.06113982 146.86567984 -20.06385616 140.01252444 -20.10620117 133.15869141 C-20.14701651 126.54479446 -20.14088898 119.93201534 -20.10607719 113.31801224 C-20.10047641 110.79423216 -20.11063254 108.27036653 -20.13676643 105.74671555 C-20.17068794 102.21162379 -20.14868458 98.6809819 -20.11352539 95.14599609 C-20.13653214 94.10158356 -20.15953888 93.05717102 -20.1832428 91.98110962 C-20.03392832 85.03147563 -20.03392832 85.03147563 -17.05904675 82.06365108 C-14.76488512 80.5134673 -12.47537117 79.23535049 -10 78 C-8.69525271 77.21762595 -7.39543837 76.42686538 -6.10424805 75.62231445 C-4.82483334 74.866879 -3.54395792 74.11391261 -2.26171875 73.36328125 C-1.22964043 72.75410103 -1.22964043 72.75410103 -0.17671204 72.13261414 C1.98494668 70.85682799 4.1484775 69.58427192 6.3125 68.3125 C9.18520644 66.62381231 12.05601244 64.93195517 14.92578125 63.23828125 C15.57686356 62.85698563 16.22794586 62.47569 16.89875793 62.08283997 C19.45739627 60.57271161 21.91283682 59.06822984 24.25463867 57.23510742 C26 56 26 56 29 56 C30.23583984 57.35083008 30.23583984 57.35083008 31.4609375 59.26953125 C31.92556396 59.98359131 32.39019043 60.69765137 32.86889648 61.43334961 C33.36591064 62.21846924 33.8629248 63.00358887 34.375 63.8125 C35.45581968 65.47734968 36.53789151 67.141387 37.62109375 68.8046875 C38.17909668 69.66674805 38.73709961 70.52880859 39.31201172 71.41699219 C41.95841917 75.46660035 44.69552758 79.45223942 47.4375 83.4375 C47.97246094 84.21778564 48.50742187 84.99807129 49.05859375 85.80200195 C51.27817349 89.03944221 53.50089377 92.27470758 55.72607422 95.50830078 C57.44379478 98.00456698 59.15979556 100.5020044 60.875 103 C61.41866211 103.79051758 61.96232422 104.58103516 62.52246094 105.39550781 C66.08343392 110.59527527 69.48976914 115.8550832 72.73046875 121.26171875 C73.14941406 121.83535156 73.56835938 122.40898438 74 123 C74.66 123 75.32 123 76 123 C76 95.94 76 68.88 76 41 C71.38 41 66.76 41 62 41 C39.58228237 38.77842438 20.10684615 30.09337332 5 13 C4.505 12.01 4.505 12.01 4 11 C3.34 11 2.68 11 2 11 C2 10.34 2 9.68 2 9 C1.34 9 0.68 9 0 9 Z " fill="#030006" transform="translate(226,3)"/>
<path d="M0 0 C0.66 0 1.32 0 2 0 C3.06514653 4.4244548 3.99204873 8.8225161 4.66015625 13.32421875 C4.77834717 14.10168457 4.89653809 14.87915039 5.01831055 15.68017578 C5.25117658 17.23548499 5.47319602 18.79246786 5.68286133 20.35107422 C7.05725764 29.41716375 10.61019367 35.6282682 17.7578125 41.42578125 C31.82955212 51.77894329 52.73424697 56.65094507 69.99609375 55.82421875 C86.26463659 55.2427712 97.13068705 60.74125874 110.81738281 69.07470703 C114.82679415 71.50016099 118.90390925 73.79038528 122.99389648 76.07641602 C125.82544957 77.6597919 128.64608076 79.26117405 131.46484375 80.8671875 C139.92460425 85.6717185 148.46200583 90.33634211 157 95 C157 95.66 157 96.32 157 97 C143.63157406 96.50588017 130.29041397 95.72407171 116.9453125 94.80859375 C116.14654442 94.75385517 115.34777634 94.69911659 114.52480316 94.64271927 C107.87308976 94.18593331 101.22181054 93.72294154 94.57055664 93.25952148 C89.56848545 92.91119448 84.56627015 92.56509088 79.56383896 92.22197151 C77.25058088 92.06240609 74.93756481 91.89961716 72.62454224 91.73667908 C71.20038964 91.63866124 69.77622637 91.54079838 68.35205078 91.44311523 C67.12157013 91.35730698 65.89108948 91.27149872 64.62332153 91.18309021 C60.73707929 90.98671434 56.89044214 90.96956793 53 91 C71.62692279 115.62122508 100.62297471 126.28270049 130.42254639 130.652771 C134.04062014 131.14019011 137.66325831 131.59004288 141.28613281 132.04003906 C142.0286026 132.13253937 142.77107239 132.22503967 143.53604126 132.32034302 C145.35732265 132.54720214 147.17865614 132.77364292 149 133 C149.13975208 144.9795948 149.24600007 156.95899189 149.31087303 168.9392395 C149.34202768 174.50373372 149.3842071 180.06766537 149.45263672 185.63183594 C149.51839945 191.01356439 149.55382495 196.39475584 149.56926346 201.77685547 C149.58024855 203.81795695 149.60169647 205.859033 149.63438034 207.89990234 C149.83500778 220.96123583 148.66541806 231.1109214 143 243 C142.68633862 243.66135956 142.37267723 244.32271912 142.04951096 245.00411987 C137.25668708 255.03613051 131.21604167 263.55941793 124 272 C123.12601563 273.02867187 123.12601563 273.02867187 122.234375 274.078125 C103.11327736 294.74436184 73.19172262 304.04877663 45.87890625 305.25 C31.41068962 305.66900278 16.01079235 304.89918461 2 301 C1.67 300.34 1.34 299.68 1 299 C4.21579047 298.07379526 7.25624112 297.78574894 10.59375 297.60546875 C40.42024688 295.81905962 66.10497 291.29332205 89 271 C89.66 271 90.32 271 91 271 C91 270.34 91 269.68 91 269 C91.66 269 92.32 269 93 269 C93.41572266 268.09701172 93.41572266 268.09701172 93.83984375 267.17578125 C95 265 95 265 97.5625 262.1875 C107.8053565 250.4169803 116.96429141 233.06084999 117.20532227 217.22167969 C117.22526749 216.0607782 117.24521271 214.89987671 117.26576233 213.70379639 C117.28247482 212.45576233 117.29918732 211.20772827 117.31640625 209.921875 C117.3475779 207.99930878 117.3475779 207.99930878 117.37937927 206.03790283 C117.43444747 202.63823728 117.48392364 199.23851262 117.53222656 195.83874512 C117.58255332 192.36640186 117.63818093 188.89414395 117.69335938 185.421875 C117.80075422 178.61465739 117.90224027 171.80736261 118 165 C116.96480225 165.18570557 115.92960449 165.37141113 114.86303711 165.56274414 C111.18614778 165.97893 108.75819452 165.8154788 105.19140625 164.99609375 C104.12245117 164.7532666 103.05349609 164.51043945 101.95214844 164.26025391 C100.27427246 163.85299072 100.27427246 163.85299072 98.5625 163.4375 C97.40395508 163.16083496 96.24541016 162.88416992 95.05175781 162.59912109 C63.05517753 154.73162165 37.87594988 137.51141068 20.546875 109.29296875 C15.88627055 101.54218092 11.49057657 93.99622317 10 85 C9.34 84.67 8.68 84.34 8 84 C4.88052763 75.94421971 3.62210085 66.89940946 1.8671875 58.453125 C1.72394043 57.76379883 1.58069336 57.07447266 1.43310547 56.36425781 C0.17773503 49.51137883 -0.13380208 42.98196255 -0.09765625 36.03515625 C-0.0962413 35.00184677 -0.09482635 33.96853729 -0.09336853 32.90391541 C-0.08779839 29.6234134 -0.07525141 26.34298117 -0.0625 23.0625 C-0.05748114 20.83007911 -0.05291891 18.59765715 -0.04882812 16.36523438 C-0.03783875 10.91013269 -0.0211305 5.45507133 0 0 Z M6 40 C5.75565464 47.3470009 6.24877813 54.03495222 7.9375 61.1875 C8.15494873 62.11949219 8.37239746 63.05148438 8.59643555 64.01171875 C16.79349477 97.27546803 33.1784854 125.98076652 62.87890625 144.03027344 C79.72947541 153.99171169 99.61454594 160.10635556 119.24194336 160.02075195 C120.13513779 160.01775589 121.02833221 160.01475983 121.94859314 160.01167297 C122.6255574 160.00782089 123.30252167 160.00396881 124 160 C124.00838382 168.05138881 123.98382288 176.10177857 123.9197216 184.15288448 C123.89092212 187.89334835 123.87254489 191.63319792 123.87988281 195.3737793 C123.92698671 226.85942911 123.92698671 226.85942911 117 241 C116.42502918 242.27922998 115.85441162 243.56042519 115.28808594 244.84350586 C111.35138009 253.56237199 106.06014786 260.67326175 100 268 C99.20464844 269.00289062 98.40929687 270.00578125 97.58984375 271.0390625 C94.82807398 274.19656097 91.97587434 276.79084078 88.6875 279.375 C88.08719971 279.84687744 87.48689941 280.31875488 86.8684082 280.80493164 C80.10714777 285.93431351 72.70959948 289.52887346 65 293 C64.00613281 293.45503906 63.01226562 293.91007813 61.98828125 294.37890625 C60.00167631 295.27397001 58.00275318 296.14167721 56 297 C56 297.33 56 297.66 56 298 C68.61077876 297.70610473 80.75189708 293.53916012 92 288 C92.80695313 287.63261719 93.61390625 287.26523437 94.4453125 286.88671875 C100.64648149 283.97577245 105.78945287 280.42940889 111 276 C112.27423828 274.92685547 112.27423828 274.92685547 113.57421875 273.83203125 C118.80147005 269.29237055 123.16068645 264.75368202 127 259 C127.54011719 258.236875 128.08023438 257.47375 128.63671875 256.6875 C134.25048242 248.41192929 138.34222301 239.28674188 142 230 C142.34252808 229.14012482 142.68505615 228.28024963 143.03796387 227.39431763 C144.17377103 223.38688991 144.27296729 219.65808446 144.24291992 215.53198242 C144.24576744 214.28949738 144.24576744 214.28949738 144.24867249 213.02191162 C144.25236037 210.29966599 144.24170812 207.57769042 144.23046875 204.85546875 C144.22927617 202.96071911 144.22882395 201.06596887 144.2290802 199.17121887 C144.22751901 195.20956701 144.2192541 191.24800598 144.20581055 187.28637695 C144.18876315 182.1972699 144.18499805 177.10826202 144.18575573 172.01912975 C144.18548454 168.11164903 144.1800126 164.20419017 144.17275429 160.29671669 C144.1695638 158.41914345 144.16759933 156.54156773 144.16686058 154.66399193 C144.16470431 152.04963274 144.15597737 149.43538117 144.14526367 146.82104492 C144.14571686 146.03925369 144.14617004 145.25746246 144.14663696 144.45198059 C144.44831631 140.9327052 144.44831631 140.9327052 143 138 C141.51963839 137.76172905 140.03015002 137.57967722 138.5390625 137.421875 C125.65133733 135.96171668 113.40092212 133.81900917 101 130 C99.75863281 129.61972656 98.51726562 129.23945313 97.23828125 128.84765625 C74.55711779 121.30420099 55.02879815 107.98887439 44.0625 86.3125 C43.5365625 85.1678125 43.5365625 85.1678125 43 84 C44.87751953 84.23396484 44.87751953 84.23396484 46.79296875 84.47265625 C52.29389122 85.08363124 57.78348982 85.26163405 63.3125 85.4375 C70.67136306 85.70119446 77.93839968 86.13370416 85.25 87 C100.73209634 88.79754677 116.43180793 88.68700758 132 89 C128.27668684 85.96054457 124.5697428 83.4827674 120.375 81.125 C119.75890869 80.77767822 119.14281738 80.43035645 118.50805664 80.07250977 C111.86917999 76.34034273 105.18135206 72.69969996 98.46484375 69.109375 C97.86808838 68.78976807 97.27133301 68.47016113 96.65649414 68.14086914 C94.95690853 67.23133347 93.25583479 66.32458019 91.5546875 65.41796875 C89 64 89 64 88 63 C86.43153522 62.87820312 84.85803366 62.82025392 83.28515625 62.7890625 C82.29789551 62.76295898 81.31063477 62.73685547 80.29345703 62.70996094 C79.22724121 62.68192383 78.16102539 62.65388672 77.0625 62.625 C53.33973054 61.7899136 26.28665257 58.3916532 8.390625 41.28515625 C7.1931874 39.88688193 7.1931874 39.88688193 6 40 Z " fill="#060400" transform="translate(0,1)"/>
<path d="M0 0 C0 0.99 0 1.98 0 3 C-3.63 3.33 -7.26 3.66 -11 4 C-3.4 -1.7 -3.4 -1.7 0 0 Z " fill="#C48A00" transform="translate(67,295)"/>
<path d="M0 0 C0.33 0 0.66 0 1 0 C0.67 2.97 0.34 5.94 0 9 C-0.66 8.01 -1.32 7.02 -2 6 C-2.99 6 -3.98 6 -5 6 C-3.35830472 3.97945196 -1.69088222 1.97956942 0 0 Z " fill="#BD8500" transform="translate(492,26)"/>
</svg>
